<svg width="64" height="64" viewBox="0 0 24 24" fill="none" xmlns="http://www.w3.org/2000/svg">
  <path d="M12 0C5.373 0 0 5.373 0 12c0 5.303 3.438 9.8 8.207 11.387.6.11.827-.263.827-.585v-2.066c-3.338.727-4.042-1.614-4.042-1.614-.546-1.385-1.332-1.754-1.332-1.754-1.089-.746.083-.73.083-.73 1.204.084 1.838 1.237 1.838 1.237 1.072 1.838 2.809 1.305 3.492.998.107-.775.42-1.305.762-1.605-2.664-.3-5.467-1.332-5.467-5.925 0-1.308.468-2.378 1.236-3.217-.125-.303-.535-1.52.117-3.169 0 0 1.007-.323 3.3 1.23.957-.266 1.98-.398 3-.404 1.02.006 2.043.138 3 .404 2.293-1.553 3.3-1.23 3.3-1.23.652 1.648.242 2.866.118 3.169.77.839 1.236 1.909 1.236 3.217 0 4.611-2.81 5.621-5.483 5.915.43.372.814 1.104.814 2.221v3.293c0 .324.227.696.832.579C20.56 21.801 24 17.303 24 12 24 5.373 18.627 0 12 0z" fill="#000000"/>
</svg>
